<svg xmlns="http://www.w3.org/2000/svg" viewBox="0 0 346.2 178.47"><defs><style>.cls-1{fill:none;stroke:#000;}.cls-1,.cls-4,.cls-5{stroke-miterlimit:10;}.cls-2,.cls-5{fill:#414342;}.cls-3{fill:#f06236;}.cls-4{fill:#ffaa78;stroke:#ffaa78;}.cls-5{stroke:#414243;}</style></defs><g id="GLASS"><g id="frame_background" data-name="frame background"><g id="Layer_9_copy" data-name="Layer 9 copy"><path class="cls-1" d="M141.76,236.73c7.17-2.69,18.2-3.6,27.66-4.28,18.33-1.33,36.55-2.22,55-1.73a175.5,175.5,0,0,1,30.5,3.32c10,2.06,19.91,4.57,30,5.94,25.49,3.46,50.63-4.64,76.18-7.59,36.52-4.22,59.64-1.23,95.81,4.27,1.68.25,5.8,1.69,6,3.38.52,4.63-.9,17-1.79,22.28-2.18,13-2.15,14.39-4.7,27.19-2.44,12.23-5,25.69-14,33.62-5.53,4.83-13.82,5.9-21.11,6.76-21.31,2.5-43,5-64.08.85-5.84-1.15-11.69-2.86-16.61-6.2-8.08-5.47-12.46-14.32-15.91-24-3.3-9.23-6.34-18.68-9.16-27.78-2.17-7-8.28-14.2-17.14-12.92-5.21.75-8.75,3.43-11.41,8s-3.05,10-4.6,15c-4.07,13.14-7.72,26.05-15.88,37-6.07,8.17-18.53,8.42-28.59,9.93-23.54,3.51-48.86,1.88-72.69-2.45a16.29,16.29,0,0,1-8-4.53c-2.35-2.42-5.25-4.86-6.62-8.06a87.83,87.83,0,0,1-5.93-22.56c-1.06-7.66-2.61-15.26-4.18-22.7s-2.74-23.67-1.63-29.93Z" transform="translate(-127.82 -219.9)"/><path class="cls-2" d="M381.85,343a137.28,137.28,0,0,1-26.62-2.4c-5.37-1.06-13.33-3-20.29-7.73C324,325.43,318.85,314.08,315.23,304s-6.89-20.41-9.3-28.18c-.91-2.93-3.17-6-5.56-6a4.42,4.42,0,0,0-.61.05c-1.72.24-2.84.8-4.21,3.13a26.37,26.37,0,0,0-2.16,6.95c-.43,1.9-.87,3.87-1.51,5.94l-.76,2.48c-3.92,12.73-8,25.9-16.64,37.57-7.69,10.35-20.43,12-30.67,13.25-1.52.19-3,.38-4.47.6a194.46,194.46,0,0,1-28.54,2,266.5,266.5,0,0,1-47.41-4.52,26.09,26.09,0,0,1-13.45-7.41c-.39-.4-.8-.8-1.21-1.21-2.47-2.44-5.54-5.47-7.42-9.87a98,98,0,0,1-6.65-25.14c-1-7.29-2.49-14.57-4-22a136.85,136.85,0,0,1-2.15-29.77,17,17,0,0,1,5.28-11.25,17.25,17.25,0,0,1,6.69-3.94c8-2.52,18.35-3.43,28.27-4.15,18.13-1.3,32.09-1.89,45.28-1.89,3.62,0,7.22,0,10.69.14a185.21,185.21,0,0,1,32.26,3.53c2.88.59,5.75,1.22,8.63,1.85,7.14,1.57,13.88,3,20.7,4a85.57,85.57,0,0,0,11.68.75c12.3,0,24.65-2.21,37.72-4.54,7.89-1.41,16-2.87,24.28-3.82a290.22,290.22,0,0,1,33.67-2.06c21.25,0,40.26,2.64,64.79,6.37,4.93.75,13.52,4.15,14.43,12.15.77,6.86-1.31,21.74-1.87,25.05-.72,4.26-1.19,7.26-1.6,9.83-.84,5.37-1.4,8.91-3.15,17.67l-.13.63c-2.66,13.37-5.68,28.53-17.15,38.56-8,7-18.7,8.24-26.52,9.16C409.91,341.29,395.75,343,381.85,343Z" transform="translate(-127.82 -219.9)"/><path class="cls-2" d="M381.85,343.45A137.34,137.34,0,0,1,355.14,341c-5.43-1.07-13.45-3-20.48-7.8-11-7.48-16.25-18.91-19.9-29.11s-6.89-20.42-9.31-28.2c-.87-2.8-3-5.69-5.08-5.69a3.23,3.23,0,0,0-.53,0c-1.6.23-2.58.72-3.86,2.9a25.93,25.93,0,0,0-2.1,6.79c-.43,1.93-.88,3.9-1.52,6l-.77,2.48c-3.93,12.77-8,26-16.71,37.72-7.82,10.52-20.68,12.14-31,13.45l-.25,0c-1.44.18-2.85.36-4.22.56a193.92,193.92,0,0,1-28.61,2,267.52,267.52,0,0,1-47.5-4.53,26.56,26.56,0,0,1-13.72-7.55L148.41,329c-2.53-2.5-5.64-5.57-7.56-10.06a98.44,98.44,0,0,1-6.69-25.28c-1-7.27-2.48-14.53-4-22a136.7,136.7,0,0,1-2.16-29.9,17.55,17.55,0,0,1,5.43-11.58,17.76,17.76,0,0,1,6.89-4.06c8.05-2.53,18.44-3.45,28.39-4.17,18.13-1.3,32.11-1.89,45.31-1.89,3.64,0,7.24,0,10.71.14A186.23,186.23,0,0,1,257,223.76c2.86.59,5.71,1.21,8.56,1.84,7.2,1.57,13.93,3.05,20.74,4a84.53,84.53,0,0,0,11.61.75c12.25,0,24.58-2.2,37.63-4.54,7.91-1.41,16.08-2.87,24.32-3.82a290.92,290.92,0,0,1,33.72-2.06c21.28,0,40.31,2.64,64.87,6.38,5.07.77,13.91,4.29,14.85,12.58.77,6.92-1.32,21.87-1.88,25.2-.71,4.25-1.19,7.25-1.59,9.82-.85,5.37-1.41,8.91-3.16,17.68l-.13.63c-2.68,13.46-5.72,28.71-17.31,38.84-8.1,7.09-18.91,8.36-26.79,9.29C410,341.78,395.78,343.45,381.85,343.45Zm-81.48-74.21c2.66,0,5.05,3.22,6,6.39,2.41,7.77,5.65,18,9.29,28.16s8.72,21.31,19.52,28.62c6.88,4.66,14.77,6.6,20.11,7.65a136.18,136.18,0,0,0,26.52,2.39c13.87,0,28-1.66,40.48-3.13,7.78-.91,18.4-2.15,26.27-9,11.34-9.91,14.34-25,17-38.28l.13-.63c1.74-8.76,2.3-12.29,3.15-17.64.41-2.58.88-5.58,1.6-9.84.55-3.3,2.63-18.11,1.86-24.91-.87-7.7-9.21-11-14-11.71-24.51-3.73-43.51-6.37-64.72-6.37A291.34,291.34,0,0,0,360,223c-8.21,1-16.36,2.41-24.23,3.82-13.12,2.34-25.49,4.55-37.83,4.55a86.58,86.58,0,0,1-11.75-.76c-6.84-.93-13.59-2.4-20.74-4-2.92-.64-5.77-1.26-8.62-1.85a185.25,185.25,0,0,0-32.17-3.52c-3.46-.09-7-.14-10.68-.14-13.18,0-27.13.59-45.24,1.89-9.89.72-20.21,1.62-28.16,4.12a16.93,16.93,0,0,0-6.5,3.83A16.55,16.55,0,0,0,129,241.84a136.35,136.35,0,0,0,2.13,29.64c1.57,7.44,3.06,14.72,4.06,22a97.26,97.26,0,0,0,6.62,25c1.84,4.31,4.87,7.31,7.31,9.71.44.44.84.83,1.22,1.23a25.61,25.61,0,0,0,13.18,7.26,266.41,266.41,0,0,0,47.32,4.51,193.25,193.25,0,0,0,28.46-2c1.38-.2,2.8-.38,4.25-.57l.24,0c10.14-1.28,22.76-2.87,30.33-13.05,8.61-11.6,12.65-24.72,16.56-37.42l.76-2.47c.64-2.06,1.08-4,1.5-5.9.65-2.89,1.21-5.38,2.22-7.1,1.46-2.5,2.74-3.11,4.57-3.38A5.45,5.45,0,0,1,300.37,269.24Z" transform="translate(-127.82 -219.9)"/></g></g><g id="frame_fill1" data-name="frame fill1"><path class="cls-3" d="M141.76,236.73c7.17-2.69,18.2-3.6,27.66-4.28,18.33-1.33,36.55-2.22,55-1.73a175.5,175.5,0,0,1,30.5,3.32c10,2.06,19.91,4.57,30,5.94,25.49,3.46,50.63-4.64,76.18-7.59,36.52-4.22,59.64-1.23,95.81,4.27,1.68.25,5.8,1.69,6,3.38.52,4.63-1.08,16.75-1.79,22.28-1.68,13-2.25,14.28-4.7,27.19s-5,25.69-14,33.62c-5.53,4.83-13.82,5.9-21.11,6.76-21.31,2.5-43,5-64.08.85-5.84-1.15-11.69-2.86-16.61-6.2-8.08-5.47-12.46-14.32-15.91-24-3.3-9.23-6.34-18.68-9.16-27.78-2.17-7-8.28-14.2-17.14-12.92-5.21.75-8.75,3.43-11.41,8s-3.05,10-4.6,15c-4.07,13.14-7.72,26.05-15.88,37-6.07,8.17-18.53,8.42-28.59,9.93-23.54,3.51-48.86,1.88-72.69-2.45a16.29,16.29,0,0,1-8-4.53c-2.35-2.42-5.25-4.86-6.62-8.06-3.05-7.13-4.28-14.78-5.93-22.56-1.6-7.46-3.27-15.13-4.18-22.7s-2.74-23.67-1.63-29.93Z" transform="translate(-127.82 -219.9)"/></g><g id="shine4"><polygon class="cls-4" points="110.59 11.76 42.71 108.23 31.66 104.8 25.76 98.98 21.1 90.55 16.51 68.02 13.04 51.2 11.17 37.52 10.6 26.15 10.97 19.8 15.51 16.33 21.42 14.88 39.8 12.75 66.41 11.17 88.12 10.76 110.59 11.76"/><polygon class="cls-4" points="290.06 11.77 221.11 108.4 211.22 103.33 204.12 95.88 198.28 84.09 194.07 70.98 187.88 52.95 184.87 43.73 183.43 34.02 184.24 26.85 187.06 21.99 191.97 19.16 206.2 17.4 229.52 13.07 250.43 11.03 275 10.75 290.06 11.77"/><polyline class="cls-4" points="123.66 13.48 57.39 110.07 65.72 110.8 130.88 15.12 123.83 13.68"/></g><g id="middle_section" data-name="middle section"><path class="cls-5" d="M285.7,270.53c7.84-27.32-.63-31.56-15-33.23l53.78,1c-19.24.65-12.72,23-9.92,32.08L300,267.79Z" transform="translate(-127.82 -219.9)"/></g><g id="gray_frame" data-name="gray frame"><path class="cls-2" d="M381.9,333.46a128.92,128.92,0,0,1-24.83-2.23c-7.36-1.45-12.54-3.38-16.8-6.27-8.65-5.86-13-15.52-16.1-24.2-3.59-10-6.78-20.12-9.17-27.8-2.21-7.13-8.21-13.79-16.59-12.58-4.85.7-8.37,3.16-11.05,7.73-1.73,2.94-2.5,6.36-3.24,9.68-.39,1.72-.78,3.5-1.32,5.22L282,285.5c-3.86,12.51-7.49,24.34-15.19,34.69-5.27,7.11-15.34,8.37-24.23,9.49-1.6.2-3.17.4-4.69.63-21.63,3.23-46.14,2.4-72.85-2.45a16.76,16.76,0,0,1-8.32-4.67l-1.36-1.36c-2.07-2.05-4.21-4.16-5.36-6.85a88.15,88.15,0,0,1-6-22.69c-1-7.61-2.57-15.06-4.17-22.67-1.65-7.85-2.74-23.86-1.63-30.12l0-.16,3.29-3.08c7-2.64,17.59-3.57,27.8-4.31,15.05-1.09,34.91-2.27,55-1.73A175.88,175.88,0,0,1,255,233.55c2.84.59,5.68,1.21,8.51,1.83,7,1.54,14.26,3.12,21.46,4.1,17.51,2.38,35.22-.79,52.36-3.85,7.74-1.39,15.76-2.82,23.69-3.74,36.71-4.24,60.37-1.14,96,4.27,1.34.21,6.16,1.62,6.41,3.83.52,4.67-.87,16.88-1.8,22.41-.72,4.3-1.2,7.33-1.61,9.92-.83,5.25-1.38,8.72-3.09,17.29l-.12.63c-2.37,11.89-5.06,25.37-14.09,33.27-5.77,5-14.43,6.06-21.38,6.87C408.34,331.9,395.12,333.46,381.9,333.46Zm-81.51-74.22c7.85,0,13.41,6.5,15.57,13.43,2.38,7.67,5.57,17.75,9.15,27.75,3.05,8.53,7.31,18,15.72,23.71,4.14,2.81,9.21,4.7,16.43,6.12,21.17,4.16,42.91,1.61,63.92-.86,6.82-.8,15.3-1.8,20.84-6.64,8.78-7.67,11.43-21,13.77-32.71l.12-.63c1.71-8.55,2.25-12,3.08-17.25.41-2.59.89-5.63,1.61-9.93.9-5.32,2.3-17.62,1.79-22.13-.14-1.24-3.74-2.67-5.56-2.95-35.49-5.39-59.1-8.49-95.68-4.26-7.91.91-15.9,2.34-23.64,3.72-17.21,3.08-35,6.26-52.66,3.86-7.24-1-14.51-2.57-21.54-4.11-2.83-.62-5.66-1.24-8.5-1.83a175,175,0,0,0-30.42-3.31c-20.07-.54-39.9.64-54.93,1.73-10.09.72-20.51,1.65-27.43,4.21l-2.8,2.67c-1,6.17.06,22,1.65,29.59s3.13,15.09,4.18,22.73a87.35,87.35,0,0,0,5.9,22.43c1.07,2.51,3.14,4.56,5.15,6.54.47.46.93.92,1.37,1.37a15.65,15.65,0,0,0,7.78,4.39c26.61,4.83,51,5.65,72.53,2.44,1.52-.23,3.1-.43,4.71-.63,9.11-1.15,18.53-2.33,23.55-9.09,7.59-10.22,11.2-22,15-34.4l.77-2.49c.52-1.68.91-3.44,1.3-5.14.75-3.39,1.54-6.89,3.34-10,2.86-4.86,6.6-7.47,11.78-8.22A15.44,15.44,0,0,1,300.39,259.24Z" transform="translate(-127.82 -219.9)"/></g></g><g id="TEXT"><path class="cls-3" d="M140.22,387.51a8.87,8.87,0,0,1-3.76-3.86,13.29,13.29,0,0,1-1.29-6.09V375a13,13,0,0,1,1.29-6,8.87,8.87,0,0,1,3.76-3.81,12.6,12.6,0,0,1,5.95-1.31,14.79,14.79,0,0,1,3.76.46,11.14,11.14,0,0,1,3.17,1.32,8.53,8.53,0,0,1,2.35,2.11l-4.15,4a6.53,6.53,0,0,0-2.09-1.28,7,7,0,0,0-2.51-.45,5.17,5.17,0,0,0-3.77,1.3,4.88,4.88,0,0,0-1.34,3.67v2.6a5.07,5.07,0,0,0,1.34,3.76,5.14,5.14,0,0,0,3.77,1.32,6.6,6.6,0,0,0,2.54-.49,6,6,0,0,0,2.06-1.41l4.15,4.27a8.8,8.8,0,0,1-2.37,2.07,11.29,11.29,0,0,1-3.16,1.3,15.17,15.17,0,0,1-3.75.45A12.48,12.48,0,0,1,140.22,387.51Z" transform="translate(-127.82 -219.9)"/><path class="cls-3" d="M218.14,387c-1.29-1.25-1.93-3.13-1.93-5.66a6.64,6.64,0,0,1,2.17-5.42q2.16-1.8,6.5-1.8H231l.32,4.9h-6.39a3.48,3.48,0,0,0-2.18.57,2.08,2.08,0,0,0-.73,1.75,2,2,0,0,0,.91,1.77,5.33,5.33,0,0,0,2.77.57,9.3,9.3,0,0,0,3.83-.59,1.92,1.92,0,0,0,1.26-1.82l.49,3.54a3.35,3.35,0,0,1-1.21,2.22,6.89,6.89,0,0,1-2.67,1.37,12.12,12.12,0,0,1-3.39.46Q220.08,388.83,218.14,387Zm12.63-13.91a3.14,3.14,0,0,0-1.13-2.6,4.93,4.93,0,0,0-3.19-.92,8.39,8.39,0,0,0-2.69.45,7.86,7.86,0,0,0-2.37,1.24l-4-3.92a9.66,9.66,0,0,1,3.84-2.59,14.7,14.7,0,0,1,5.3-.92,12.46,12.46,0,0,1,5.43,1.07,7.67,7.67,0,0,1,3.44,3.09,9.52,9.52,0,0,1,1.18,4.89v15.63h-5.83Z" transform="translate(-127.82 -219.9)"/><path class="cls-3" d="M300.53,364.15H307v34.22h-6.42Zm8.39,23.59a6.43,6.43,0,0,1-2.3-3.08l.33-5.56a4.52,4.52,0,0,0,.42,2,2.9,2.9,0,0,0,1.23,1.29,4,4,0,0,0,2,.45,3.43,3.43,0,0,0,2.8-1.2,5.09,5.09,0,0,0,1-3.37v-3.87a5.34,5.34,0,0,0-1-3.46,3.4,3.4,0,0,0-2.8-1.23,3.87,3.87,0,0,0-2,.46,3,3,0,0,0-1.23,1.32,4.81,4.81,0,0,0-.42,2.11l-.49-5.39a8.19,8.19,0,0,1,2.59-3.29,5.94,5.94,0,0,1,3.55-1.16,7.29,7.29,0,0,1,7.22,4.87,15.45,15.45,0,0,1,1,5.75v3.89a15,15,0,0,1-1,5.68,7.31,7.31,0,0,1-7.22,4.84A6.2,6.2,0,0,1,308.92,387.74Z" transform="translate(-127.82 -219.9)"/><path class="cls-3" d="M384.24,364.15h6.42v34.22h-6.42Zm8.39,23.59a6.43,6.43,0,0,1-2.3-3.08l.33-5.56a4.52,4.52,0,0,0,.42,2,2.9,2.9,0,0,0,1.23,1.29,4,4,0,0,0,2,.45,3.43,3.43,0,0,0,2.8-1.2,5.15,5.15,0,0,0,1-3.37v-3.87a5.4,5.4,0,0,0-1-3.46,3.4,3.4,0,0,0-2.8-1.23,3.87,3.87,0,0,0-2,.46,3,3,0,0,0-1.23,1.32,4.81,4.81,0,0,0-.42,2.11l-.49-5.39a8.1,8.1,0,0,1,2.59-3.29,5.94,5.94,0,0,1,3.55-1.16,7.29,7.29,0,0,1,7.22,4.87,15.45,15.45,0,0,1,1,5.75v3.89a15,15,0,0,1-1,5.68,7.31,7.31,0,0,1-7.22,4.84A6.2,6.2,0,0,1,392.63,387.74Z" transform="translate(-127.82 -219.9)"/><path class="cls-3" d="M467.6,354.4H474v6.42H467.6Zm0,9.75H474v24.33H467.6Z" transform="translate(-127.82 -219.9)"/></g></svg>